<svg t="1595236564622" class="icon" height="17" viewBox="0 0 1024 1024" version="1.1" xmlns="http://www.w3.org/2000/svg" p-id="27274" width="200" height="200"><path d="M715.884396 413.087948c-10.021838-13.186419-28.891299-15.764892-42.049713-5.655037-60.033011 45.824405-129.179694 70.856996-212.440965 70.508932-45.242298-0.190035-151.371764-18.749439-173.147759-40.707466-5.655037-15.558854-22.768176-23.558321-38.445051-17.93329-15.558854 5.655037-23.618332 22.856192-17.933289 38.445052 5.473004 15.068764 20.931839 27.801099 41.16555 38.65309l-33.224094 33.224093c-11.72015 11.72015-11.72015 30.709633 0 42.429783s30.709633 11.72015 42.429783 0l52.259585-52.259586c13.46847 3.644668 27.214992 6.667223 41.117542 9.201688l-22.496126 83.965401c-4.278785 15.998934 5.214957 32.465955 21.213891 36.74474 15.86291 4.278785 32.451952-5.094935 36.744739-21.213891l24.574508-91.718823c9.577757 0.65612 18.895466 1.116205 27.263 1.116204 1.918352 0 3.670673-0.402074 5.583024-0.424077l24.394475 91.026696c4.296788 16.130959 20.895833 25.488675 36.744739 21.213891 15.998934-4.278785 25.492676-20.745805 21.213891-36.74474l-21.473939-80.140699c14.752706-2.270416 28.771277-6.387172 42.90587-10.215874l49.45107 49.45107c11.72015 11.72015 30.709633 11.72015 42.429783 0s11.72015-30.709633 0-42.429782l-29.723452-29.723452c26.22481-12.252247 51.743491-26.412845 75.7859-44.76221 13.188419-10.053844 15.708881-28.8953 5.657038-42.051713zM782.048532 419.887195h180.033021v424.077783h-180.033021zM953.690014 359.876188s-52.859695-158.555082-52.861696-158.553082a29.917487 29.917487 0 0 0-7.549385-12.688327c-5.685043-5.713048-11.926187-12.424279-18.81145-19.867644-84.097425-90.750645-281.007542-303.221616-795.965994-45.770395a30.017506 30.017506 0 0 0-16.585042 26.840923v180.033021c0 10.811983 5.801064 20.775811 15.208789 26.108789a30.03951 30.03951 0 0 0 30.239547-0.38007c413.689878-248.277539 605.002968-174.612027 719.33994-130.511938 2.654487 1.022187 5.230959 2.012369 7.795429 2.992549l-44.060081 131.796174zM962.081553 933.981489v-30.005504h-180.033021v30.005504c0 49.637104 40.379406 90.016511 90.01651 90.016511s90.016511-40.379406 90.016511-90.016511z" p-id="27275"></path></svg>