<svg t="1595236985610" class="icon" width="16" height="16" viewBox="0 0 1024 1024" version="1.1" xmlns="http://www.w3.org/2000/svg" p-id="45951" xmlns:xlink="http://www.w3.org/1999/xlink" width="200" height="200"><defs><style type="text/css"></style></defs><path d="M714.7 425.9L551.1 262.3c-21.9-21.9-57.4-21.9-79.3 0l-335 335c-14 14-21.9 33-21.9 52.8V806c0 31 25.1 56 56 56h155.8c19.8 0 38.8-7.9 52.8-21.9l335-335c22.1-21.9 22.1-57.3 0.2-79.2zM838.2 779.3H569.6c-22.8 0-41.3 18.5-41.3 41.3s18.5 41.3 41.3 41.3h268.6c22.8 0 41.3-18.5 41.3-41.3s-18.5-41.3-41.3-41.3zM838.2 634.7h-124c-22.8 0-41.3 18.5-41.3 41.3s18.5 41.3 41.3 41.3h123.9c22.8 0 41.3-18.5 41.3-41.3s-18.4-41.3-41.2-41.3zM891.6 248.9L728.1 85.4c-21.9-21.9-57.4-21.9-79.3 0L595 139.2c-21.9 21.9-21.9 57.4 0 79.3L758.5 382c21.9 21.9 57.4 21.9 79.3 0l53.8-53.8c21.9-21.9 21.9-57.4 0-79.3z" p-id="45952"></path></svg>